<?xml version="1.0" standalone="no"?>
<svg
  width="600"
  height="600"
  viewBox="0 0 600 600"
  xmlns="http://www.w3.org/2000/svg"
>
  <g transform="translate(300,300)">
    <path d="M90.9,-139.7C110.7,-128.6,114.9,-91.5,144.5,-57.1C174.1,-22.7,229.1,9.1,238,43C246.8,77,209.6,113.2,175.7,152.2C141.8,191.3,111.3,233.4,68.9,255.2C26.5,277,-27.9,278.6,-63.3,251.7C-98.7,224.8,-115.1,169.4,-139.5,128.1C-163.9,86.9,-196.3,59.9,-202.2,28.2C-208.2,-3.6,-187.8,-40,-175.7,-86C-163.7,-132,-160,-187.6,-132.1,-195C-104.2,-202.4,-52.1,-161.7,-8.3,-148.8C35.5,-135.9,71,-150.8,90.9,-139.7Z" fill="#7bdcb5" />
  </g>
</svg>
  